<svg width="170.025048828125px" height="54.807470703125px" xmlns="http://www.w3.org/2000/svg" viewBox="190.9874755859375 47.5962646484375 170.025048828125 54.807470703125" style="background: rgba(5, 54, 101, 0);" preserveAspectRatio="xMidYMid"><defs><filter id="editing-hover" x="-100%" y="-100%" width="300%" height="300%"><feFlood flood-color="#000000" result="flood"></feFlood><feComposite operator="in" in2="SourceAlpha" in="flood" result="shadow"></feComposite><feOffset dx="1.5" dy="0.8" in="SourceGraphic" result="offset-1"></feOffset><feOffset dx="-1.5" dy="-0.8" in="shadow" result="offset-2"></feOffset><feMerge><feMergeNode in="offset-2"></feMergeNode><feMergeNode in="offset-1"></feMergeNode></feMerge></filter></defs><g filter="url(#editing-hover)"><g transform="translate(195.6900017261505, 84.29999923706055)"><path d="M11.82-14.00L13.82-14.00L13.82 0L11.82 0L11.82-6.00L3.80-6.00L3.80 0L1.80 0L1.80-14.00L3.80-14.00L3.80-8.00L11.82-8.00L11.82-14.00ZM19.83 4.20L17.92 4.20L20.10-0.94L16.02-10.40L18.04-10.40L21.07-3.24L24.11-10.40L26.13-10.40L19.83 4.20ZM37.33-8.48L37.33-1.92L37.33-1.92Q37.33-1.52 37.18-1.17L37.18-1.17L37.18-1.17Q37.03-0.82 36.77-0.56L36.77-0.56L36.77-0.56Q36.51-0.30 36.16-0.15L36.16-0.15L36.16-0.15Q35.81 0 35.41 0L35.41 0L30.05 0L30.05 4.20L28.13 4.20L28.13-10.40L30.05-10.40L30.05-8.64L30.05-8.64Q30.08-9.01 30.24-9.33L30.24-9.33L30.24-9.33Q30.41-9.65 30.66-9.89L30.66-9.89L30.66-9.89Q30.92-10.13 31.25-10.26L31.25-10.26L31.25-10.26Q31.59-10.40 31.97-10.40L31.97-10.40L35.41-10.40L35.41-10.40Q35.81-10.40 36.16-10.25L36.16-10.25L36.16-10.25Q36.51-10.10 36.77-9.84L36.77-9.84L36.77-9.84Q37.03-9.58 37.18-9.23L37.18-9.23L37.18-9.23Q37.33-8.88 37.33-8.48L37.33-8.48ZM30.05-1.92L35.41-1.92L35.41-8.48L30.05-8.48L30.05-1.92ZM49.34-8.48L49.34-4.22L42.45-4.22L42.45-1.92L49.34-1.92L49.34 0L42.45 0L42.45 0Q42.06 0 41.71-0.15L41.71-0.15L41.71-0.15Q41.36-0.30 41.10-0.56L41.10-0.56L41.10-0.56Q40.84-0.82 40.69-1.17L40.69-1.17L40.69-1.17Q40.54-1.52 40.54-1.92L40.54-1.92L40.54-8.48L40.54-8.48Q40.54-8.88 40.69-9.23L40.69-9.23L40.69-9.23Q40.84-9.58 41.10-9.84L41.10-9.84L41.10-9.84Q41.36-10.10 41.71-10.25L41.71-10.25L41.71-10.25Q42.06-10.40 42.45-10.40L42.45-10.40L47.41-10.40L47.41-10.40Q47.81-10.40 48.16-10.25L48.16-10.25L48.16-10.25Q48.52-10.10 48.77-9.84L48.77-9.84L48.77-9.84Q49.03-9.58 49.18-9.23L49.18-9.23L49.18-9.23Q49.34-8.88 49.34-8.48L49.34-8.48ZM47.41-8.48L42.45-8.48L42.45-6.14L47.41-6.14L47.41-8.48ZM58.42-8.48L54.45-8.48L54.45 0L52.54 0L52.54-10.40L54.45-10.40L54.45-8.56L54.45-8.56Q54.47-8.95 54.63-9.28L54.63-9.28L54.63-9.28Q54.79-9.62 55.04-9.87L55.04-9.87L55.04-9.87Q55.30-10.12 55.64-10.26L55.64-10.26L55.64-10.26Q55.99-10.40 56.38-10.40L56.38-10.40L58.42-10.40L58.42-10.40Q58.82-10.40 59.17-10.25L59.17-10.25L59.17-10.25Q59.51-10.10 59.78-9.84L59.78-9.84L59.78-9.84Q60.04-9.58 60.19-9.23L60.19-9.23L60.19-9.23Q60.34-8.88 60.34-8.48L60.34-8.48L60.34-6.72L58.42-6.72L58.42-8.48ZM62.13-8.48L62.13-10.40L64.67-10.40L64.67-13.60L66.59-13.60L66.59-10.40L70.01-10.40L70.01-8.48L66.59-8.48L66.59-1.92L70.01-1.92L70.01 0L66.59 0L66.59 0Q66.20 0 65.85-0.15L65.85-0.15L65.85-0.15Q65.50-0.30 65.23-0.56L65.23-0.56L65.23-0.56Q64.97-0.82 64.82-1.17L64.82-1.17L64.82-1.17Q64.67-1.52 64.67-1.92L64.67-1.92L64.67-8.48L62.13-8.48ZM73.21-1.92L73.21-10.40L75.13-10.40L75.13-1.92L80.49-1.92L80.49-10.40L82.41-10.40L82.41 0L80.49 0L80.49-1.76L80.49-1.76Q80.46-1.40 80.29-1.07L80.29-1.07L80.29-1.07Q80.13-0.75 79.87-0.51L79.87-0.51L79.87-0.51Q79.61-0.27 79.28-0.14L79.28-0.14L79.28-0.14Q78.95 0 78.57 0L78.57 0L75.13 0L75.13 0Q74.74 0 74.38-0.15L74.38-0.15L74.38-0.15Q74.03-0.30 73.77-0.56L73.77-0.56L73.77-0.56Q73.52-0.82 73.36-1.17L73.36-1.17L73.36-1.17Q73.21-1.52 73.21-1.92L73.21-1.92ZM94.81-8.48L94.81-1.92L94.81-1.92Q94.81-1.52 94.66-1.17L94.66-1.17L94.66-1.17Q94.51-0.82 94.25-0.56L94.25-0.56L94.25-0.56Q93.99-0.30 93.64-0.15L93.64-0.15L93.64-0.15Q93.29 0 92.89 0L92.89 0L87.53 0L87.53 0Q87.14 0 86.79-0.15L86.79-0.15L86.79-0.15Q86.44-0.30 86.18-0.56L86.18-0.56L86.18-0.56Q85.92-0.82 85.77-1.17L85.77-1.17L85.77-1.17Q85.62-1.52 85.62-1.92L85.62-1.92L85.62-14.40L87.53-14.40L87.53-8.56L87.53-8.56Q87.55-8.95 87.71-9.28L87.71-9.28L87.71-9.28Q87.86-9.62 88.12-9.87L88.12-9.87L88.12-9.87Q88.38-10.12 88.72-10.26L88.72-10.26L88.72-10.26Q89.06-10.40 89.45-10.40L89.45-10.40L92.89-10.40L92.89-10.40Q93.29-10.40 93.64-10.25L93.64-10.25L93.64-10.25Q93.99-10.10 94.25-9.84L94.25-9.84L94.25-9.84Q94.51-9.58 94.66-9.23L94.66-9.23L94.66-9.23Q94.81-8.88 94.81-8.48L94.81-8.48ZM92.89-8.48L87.53-8.48L87.53-1.92L92.89-1.92L92.89-8.48ZM106.82-8.48L106.82-4.22L99.93-4.22L99.93-1.92L106.82-1.92L106.82 0L99.93 0L99.93 0Q99.54 0 99.19-0.15L99.19-0.15L99.19-0.15Q98.84-0.30 98.58-0.56L98.58-0.56L98.58-0.56Q98.32-0.82 98.17-1.17L98.17-1.17L98.17-1.17Q98.02-1.52 98.02-1.92L98.02-1.92L98.02-8.48L98.02-8.48Q98.02-8.88 98.17-9.23L98.17-9.23L98.17-9.23Q98.32-9.58 98.58-9.84L98.58-9.84L98.58-9.84Q98.84-10.10 99.19-10.25L99.19-10.25L99.19-10.25Q99.54-10.40 99.93-10.40L99.93-10.40L104.89-10.40L104.89-10.40Q105.29-10.40 105.64-10.25L105.64-10.25L105.64-10.25Q106.00-10.10 106.25-9.84L106.25-9.84L106.25-9.84Q106.51-9.58 106.67-9.23L106.67-9.23L106.67-9.23Q106.82-8.88 106.82-8.48L106.82-8.48ZM104.89-8.48L99.93-8.48L99.93-6.14L104.89-6.14L104.89-8.48Z" fill="#ffffff"></path></g></g><style>text {
  font-size: 64px;
  font-family: Arial Black;
  dominant-baseline: central;
  text-anchor: middle;
}</style></svg>