<svg width="512.001" height="512.001" xmlns="http://www.w3.org/2000/svg">
 <g>
  <title>Layer 1</title>
  <path filter="url(#svg_1_blur)" d="m511.26589,199.463c-1.764,-5.432 -6.458,-9.389 -12.108,-10.209l-158.722,-23.066l-70.984,-143.827c-2.527,-5.121 -7.741,-8.361 -13.451,-8.361c-5.709,0 -10.924,3.24 -13.451,8.361l-70.988,143.826l-158.719,23.067c-5.649,0.82 -10.345,4.777 -12.108,10.207c-1.765,5.432 -0.293,11.393 3.795,15.377l114.848,111.955l-27.108,158.082c-0.965,5.629 1.349,11.315 5.968,14.672c4.619,3.355 10.741,3.799 15.797,1.141l141.965,-74.638l141.961,74.637c2.195,1.154 4.591,1.723 6.979,1.723c3.11,0 6.206,-0.965 8.818,-2.863c4.619,-3.357 6.933,-9.045 5.968,-14.672l-27.116,-158.082l114.86,-111.955c4.089,-3.985 5.561,-9.946 3.796,-15.375z" fill="#000000" id="svg_1"/>
  <path d="m511.266,197.258c-1.764,-5.432 -6.458,-9.389 -12.108,-10.209l-158.722,-23.066l-70.984,-143.827c-2.527,-5.121 -7.741,-8.361 -13.451,-8.361c-5.709,0 -10.924,3.24 -13.451,8.361l-70.988,143.826l-158.719,23.067c-5.649,0.82 -10.345,4.777 -12.108,10.207c-1.765,5.432 -0.293,11.393 3.795,15.377l114.848,111.955l-27.108,158.082c-0.965,5.629 1.349,11.315 5.968,14.672c4.619,3.355 10.741,3.799 15.797,1.141l141.965,-74.638l141.961,74.637c2.195,1.154 4.591,1.723 6.979,1.723c3.11,0 6.206,-0.965 8.818,-2.863c4.619,-3.357 6.933,-9.045 5.968,-14.672l-27.116,-158.082l114.86,-111.955c4.089,-3.985 5.561,-9.946 3.796,-15.375z" fill="#FED42D" id="svg_20"/>
  <path d="m511.266,197.258c-1.764,-5.432 -6.458,-9.389 -12.108,-10.209l-158.722,-23.066l-70.984,-143.827c-2.527,-5.121 -7.741,-8.361 -13.451,-8.361l0,412.051l141.961,74.637c2.195,1.154 4.591,1.723 6.979,1.723c3.11,0 6.206,-0.965 8.818,-2.863c4.619,-3.357 6.933,-9.045 5.968,-14.672l-27.117,-158.083l114.86,-111.955c4.089,-3.985 5.561,-9.946 3.796,-15.375z" fill="#FCBF29" id="svg_2"/>
  <g id="svg_3"/>
  <g id="svg_4"/>
  <g id="svg_5"/>
  <g id="svg_6"/>
  <g id="svg_7"/>
  <g id="svg_8"/>
  <g id="svg_9"/>
  <g id="svg_10"/>
  <g id="svg_11"/>
  <g id="svg_12"/>
  <g id="svg_13"/>
  <g id="svg_14"/>
  <g id="svg_15"/>
  <g id="svg_16"/>
  <g id="svg_17"/>
 </g>
 <defs>
  <filter height="200%" width="200%" y="-50%" x="-50%" id="svg_1_blur">
   <feGaussianBlur stdDeviation="10" in="SourceGraphic"/>
  </filter>
 </defs>
</svg>